<svg width="211" height="93" viewBox="0 0 211 93" fill="none" xmlns="http://www.w3.org/2000/svg">
<g id="freepik--Device--inject-43">
<path id="Vector" d="M208.51 1.12988H84.5399L63.3699 86.2299H187.35L208.51 1.12988Z" fill="#263238" stroke="#263238" stroke-linecap="round" stroke-linejoin="round"/>
<path id="Vector_2" d="M186.05 86.23H1.16992V92.28H186.05V86.23Z" fill="#263238" stroke="#263238" stroke-linecap="round" stroke-linejoin="round"/>
<path id="Vector_3" d="M187.35 86.23H63.3699V92.28H187.35V86.23Z" fill="url(#paint0_linear_1_3401)" stroke="#263238" stroke-linecap="round" stroke-linejoin="round"/>
<path id="Vector_4" d="M209.89 1.12988H85.91L64.74 86.2299H188.72L209.89 1.12988Z" fill="url(#paint1_linear_1_3401)" stroke="#263238" stroke-linecap="round" stroke-linejoin="round"/>
<path id="Vector_5" d="M136.61 62.81C146.374 62.81 154.29 54.9705 154.29 45.3C154.29 35.6295 146.374 27.79 136.61 27.79C126.846 27.79 118.93 35.6295 118.93 45.3C118.93 54.9705 126.846 62.81 136.61 62.81Z" fill="#263238"/>
<path id="Vector_6" d="M122.24 47.9998C122.055 47.9166 121.888 47.7965 121.751 47.647C121.613 47.4974 121.507 47.3215 121.44 47.1298C121.275 46.7191 121.275 46.2606 121.44 45.8498C121.529 45.6237 121.664 45.4183 121.836 45.2463C122.008 45.0743 122.214 44.9394 122.44 44.8498L129.93 41.8498C130.18 41.7398 130.44 41.8498 130.72 42.1798C130.968 42.4574 131.119 42.8086 131.15 43.1798C131.156 43.3583 131.112 43.5349 131.021 43.689C130.931 43.8431 130.799 43.9682 130.64 44.0498L124.36 46.4898L130.66 49.0198C130.793 49.1089 130.899 49.2321 130.967 49.3764C131.036 49.5206 131.064 49.6807 131.05 49.8398C131.038 50.2027 130.912 50.5525 130.69 50.8398C130.45 51.1598 130.21 51.2699 129.96 51.1699L122.24 47.9998Z" fill="white"/>
<path id="Vector_7" d="M133.93 52.19C133.827 52.1077 133.744 52.0025 133.689 51.8828C133.633 51.763 133.606 51.6319 133.61 51.5C133.655 51.1396 133.735 50.7845 133.85 50.44L138.01 38.44C138.27 37.54 138.64 37.09 139.12 37.09C139.384 37.0858 139.64 37.1783 139.84 37.35C139.938 37.4481 140.014 37.5655 140.064 37.6946C140.114 37.8237 140.136 37.9617 140.13 38.1C140.104 38.443 140.027 38.7802 139.9 39.1L135.55 51.8C135.501 52.0016 135.384 52.1799 135.218 52.3041C135.051 52.4282 134.847 52.4904 134.64 52.48C134.376 52.4716 134.124 52.3687 133.93 52.19Z" fill="white"/>
<path id="Vector_8" d="M142.1 50.8897C141.878 50.6024 141.752 50.2525 141.74 49.8897C141.725 49.7306 141.754 49.5704 141.823 49.4262C141.891 49.2819 141.997 49.1588 142.13 49.0697L148.43 46.5397L142.15 44.0997C141.991 44.0181 141.859 43.8929 141.768 43.7388C141.678 43.5847 141.634 43.4081 141.64 43.2297C141.671 42.8584 141.822 42.5073 142.07 42.2297C142.35 41.8997 142.61 41.7896 142.86 41.8996L150.35 44.8996C150.711 45.0425 151.019 45.2941 151.23 45.6196C151.421 45.8959 151.522 46.224 151.52 46.5596C151.508 46.8732 151.418 47.1789 151.26 47.4497C151.113 47.7177 150.881 47.9289 150.6 48.0496L142.83 51.2797C142.58 51.3197 142.34 51.2097 142.1 50.8897Z" fill="white"/>
</g>
<defs>
<linearGradient id="paint0_linear_1_3401" x1="63.3699" y1="89.255" x2="187.35" y2="89.255" gradientUnits="userSpaceOnUse">
<stop stop-color="#00F5A0"/>
<stop offset="1" stop-color="#00D9F5"/>
</linearGradient>
<linearGradient id="paint1_linear_1_3401" x1="64.74" y1="43.6799" x2="209.89" y2="43.6799" gradientUnits="userSpaceOnUse">
<stop stop-color="#00F5A0"/>
<stop offset="1" stop-color="#00D9F5"/>
</linearGradient>
</defs>
</svg>
